<svg xmlns="http://www.w3.org/2000/svg" viewBox="0 0 847.91 267.35"><defs><style>.cls-1,.cls-3{fill:#fff;}.cls-1,.cls-2{stroke:#fff;stroke-linejoin:round;stroke-width:6px;}.cls-2{fill:none;}</style></defs><title>자산 1</title><g id="레이어_2" data-name="레이어 2"><g id="레이어_1-2" data-name="레이어 1"><polygon class="cls-1" points="116.17 3 30.8 52.28 3 68.34 30.8 84.39 201.53 182.96 229.33 199.01 229.33 166.91 201.53 150.85 58.6 68.34 116.17 35.1 116.17 35.1 201.53 84.39 229.33 68.34 116.17 3 116.17 3"/><path class="cls-2" d="M229.33,68.34v32.1l-27.8,16L116.17,68.34l-29.76,16-27.81-16L116.17,35.1l85.36,49.29ZM201.53,183,3,68.34v32.1L173.73,199l-57.56,33.23L30.8,183,3,199l113.17,65.34L229.33,199Z"/><polygon class="cls-1" points="145.93 182.96 116.17 199.01 30.8 150.85 3 166.91 3 199.01 30.8 182.96 116.17 232.24 173.73 199.01 145.93 182.96"/><path class="cls-3" d="M357.3,215.18H306.14V203.51H357.3a33.31,33.31,0,0,0,17.91-5c6.88-4.36,13.38-8.47,14.48-23.87,2.08-29-34.05-33-35.59-33.11l-.38,0c-18-3-51.27-16.82-48.19-47.71,2-20.16,12.62-30.43,21.17-35.5a45.23,45.23,0,0,1,23.06-6.11h51.76V63.83H349.76a33.5,33.5,0,0,0-17.11,4.49c-9.07,5.37-14.29,14.32-15.51,26.61-2.7,27.13,35.06,34.45,38.33,35,17,1.76,48.15,13.49,45.86,45.52-1.52,21.27-12.13,28-19.87,32.9A45,45,0,0,1,357.3,215.18Z"/><path class="cls-3" d="M435.41,215.18H423L478,66.23a24.71,24.71,0,0,1,4.31-7.5c2.29-2.67,5.61-5.31,9.81-5.31,7.58,0,12.35,8.46,13.23,10.16l.31.7,54.5,150.9h-97V203.51h80.36L494.92,68.92a3.22,3.22,0,0,0-.23-.5l0,0a2.89,2.89,0,0,0-5,0l-.18.31a2.83,2.83,0,0,0-.2.43Z"/><path class="cls-3" d="M656.21,215.18h-68V53.42h68A30.8,30.8,0,0,1,687,84.19V184.4A30.81,30.81,0,0,1,656.21,215.18Zm-56.33-11.67h56.33a19.13,19.13,0,0,0,19.11-19.11V84.19a19.14,19.14,0,0,0-19.11-19.11H599.88Z"/><path class="cls-3" d="M723.17,214.55H710.73l55-149a24.55,24.55,0,0,1,4.31-7.49c2.29-2.67,5.62-5.32,9.82-5.32,7.57,0,12.34,8.46,13.22,10.16l.31.71,54.5,150.89h-97V202.89H831.3L782.69,68.3a2.88,2.88,0,0,0-.24-.5l0,0a2.89,2.89,0,0,0-5,0l-.18.3a3.36,3.36,0,0,0-.2.43Z"/></g></g></svg>