<!DOCTYPE svg PUBLIC "-//W3C//DTD SVG 1.1//EN" "http://www.w3.org/Graphics/SVG/1.1/DTD/svg11.dtd">
<svg width="859.92" height="297.60" viewBox="0.00 0.00 3583.00 1240.00" xmlns="http://www.w3.org/2000/svg" xmlns:xlink="http://www.w3.org/1999/xlink">
<g stroke-linecap="round" id="레이어_2">
<path d="M140.74,159.26 L1085.19,159.26 L1085.19,1088.89 L140.74,1088.89 L140.74,159.26 Z" fill="none" stroke="rgb(255, 255, 255)" stroke-width="25.00" stroke-opacity="1.00" stroke-linejoin="miter"/>
<path d="M388.00,388.00 C389.98,387.78 392.90,387.67 394.00,388.00 C395.19,388.37 397.13,390.44 398.00,392.00 C398.83,393.59 399.92,396.75 400.00,398.00 C400.06,398.97 399.75,402.71 400.00,404.00 C400.25,405.24 403.89,411.69 405.44,414.86 C407.89,419.97 410.84,437.41 413.44,443.93 C414.51,446.59 419.42,456.65 420.00,458.00 C421.35,461.22 422.01,466.05 422.40,468.95 C423.93,479.91 425.35,487.68 427.57,495.60 C428.20,498.16 427.75,503.36 428.00,506.00 C428.28,508.85 432.08,528.99 433.56,534.28 C435.45,540.82 436.35,552.76 436.38,561.71 C436.06,577.23 435.39,601.44 436.00,604.00 C436.57,606.31 438.53,609.31 438.99,610.28 C439.61,611.60 440.17,615.13 440.13,616.78 C440.05,618.74 439.14,627.85 440.00,630.00 C440.94,632.22 442.47,633.71 445.67,635.78 C447.44,636.94 448.78,639.49 448.69,641.44 C448.65,641.97 448.42,642.82 448.00,644.00" fill="none" stroke="rgb(255, 255, 255)" stroke-width="30.00" stroke-opacity="1.00" stroke-linejoin="round"/>
<path d="M628.00,360.00 C629.92,359.51 632.70,359.39 634.00,360.00 C635.20,360.59 638.05,368.17 639.30,371.56 C641.12,376.54 645.46,382.99 646.00,384.00 C647.59,386.96 651.47,402.40 653.15,412.95 C654.25,421.13 656.52,437.74 658.00,444.00 C660.00,452.31 667.07,468.34 667.51,472.29 C667.79,474.83 674.26,516.84 676.75,533.33 C679.23,553.17 682.95,573.47 683.30,576.02 C684.16,582.43 683.45,601.61 683.39,603.08 C683.13,610.06 684.40,624.45 685.81,634.77 C687.16,643.07 689.95,659.05 691.18,666.33 C692.71,676.56 692.56,683.62 691.69,690.72 C691.39,693.34 692.36,697.52 694.00,701.76 C696.78,708.97 696.10,715.00 696.00,716.00" fill="none" stroke="rgb(255, 255, 255)" stroke-width="30.00" stroke-opacity="1.00" stroke-linejoin="round"/>
<path d="M412.00,752.00 C415.33,754.95 418.20,757.87 419.68,760.69 C420.09,761.49 421.93,765.82 422.00,766.00 C423.50,769.73 426.92,772.82 431.31,775.45 C435.03,777.66 440.64,782.10 443.45,784.87 C445.09,786.51 450.01,791.88 452.21,795.33 C453.88,797.94 466.12,809.63 472.09,815.29 C479.02,821.81 491.03,833.22 496.09,838.11 C499.12,841.03 503.33,847.42 504.00,848.00 C504.12,848.10 510.71,852.55 514.57,856.54 C521.16,863.63 532.96,873.71 539.70,878.51 C541.40,879.73 543.25,880.56 545.49,881.13 C547.55,881.68 548.99,882.72 550.23,884.63 C551.36,886.42 552.59,890.02 553.15,890.89 C554.07,892.29 556.65,894.56 558.23,895.47 C565.17,899.35 578.82,904.62 587.64,907.17 C589.88,907.82 593.74,911.78 595.87,912.71 C600.02,914.48 617.71,915.69 625.65,916.16 C629.39,916.31 637.73,916.59 640.34,916.51 C644.06,916.37 649.79,915.23 652.07,913.57 C654.85,911.51 660.84,908.65 664.43,907.32 C668.40,905.92 677.43,902.44 678.00,902.00 C679.80,900.58 681.54,896.95 682.00,896.00 C683.00,893.97 688.60,890.47 692.63,888.89 C695.01,887.98 703.48,885.11 706.51,883.72 C712.93,880.75 720.32,875.28 732.00,866.00 C738.00,861.19 750.58,851.05 757.17,845.72 C765.29,838.97 771.17,832.64 776.85,827.87 C780.21,825.14 786.80,819.86 789.61,817.73 C793.26,814.99 798.73,812.69 800.00,812.00 C804.97,809.29 815.04,798.77 816.00,798.00 C816.64,797.49 822.94,793.32 827.92,788.97 C834.71,783.03 841.87,780.43 850.69,773.66 C852.15,772.61 855.27,770.36 856.00,770.00 C857.87,769.08 861.31,768.37 862.00,768.00 C862.61,767.67 868.57,761.65 872.00,760.00 C875.70,758.22 878.69,755.32 881.86,751.15 C887.08,743.99 894.43,729.63 899.02,720.53 C899.84,718.85 900.28,716.45 900.14,714.61 C899.96,712.16 900.29,710.80 901.65,708.81 C903.16,706.65 907.74,702.83 909.23,699.44 C911.14,695.07 913.59,688.98 915.17,684.62 C916.14,681.98 915.85,676.07 916.89,673.30 C918.20,669.85 921.87,660.84 923.01,657.40 C924.44,652.98 924.98,647.73 924.34,644.04 C923.54,639.57 923.52,637.05 924.82,633.37 C926.05,629.98 928.12,624.13 928.00,621.26 C927.85,617.44 931.59,605.32 932.00,604.00" fill="none" stroke="rgb(255, 255, 255)" stroke-width="30.00" stroke-opacity="1.00" stroke-linejoin="round"/>
<path d="M1288.00,368.00 C1290.17,368.62 1295.23,367.80 1300.92,365.97 C1305.77,364.39 1310.83,363.52 1313.83,363.94 C1314.98,364.09 1317.73,363.82 1319.23,363.35 C1320.33,362.99 1327.34,358.02 1330.49,357.39 C1344.90,354.43 1379.17,348.58 1393.10,346.73 C1400.33,345.69 1406.87,343.97 1415.97,343.91 C1423.52,343.97 1440.56,343.98 1443.66,342.98 C1446.18,342.12 1453.17,337.73 1455.02,337.12 C1458.48,336.01 1465.25,335.66 1468.07,335.52 C1468.79,335.51 1550.78,336.05 1568.00,336.00" fill="none" stroke="rgb(255, 255, 255)" stroke-width="30.00" stroke-opacity="1.00" stroke-linejoin="round"/>
<path d="M1464.00,368.00 C1464.46,379.86 1465.60,391.52 1469.00,397.91 C1469.61,399.06 1474.16,407.95 1475.03,411.55 C1475.56,413.75 1476.69,422.39 1478.00,426.00 C1479.17,429.13 1487.73,442.99 1490.85,449.92 C1492.39,453.36 1499.20,471.36 1501.96,478.88 C1506.08,490.53 1511.63,504.18 1514.42,507.39 C1516.95,510.30 1519.62,514.67 1521.25,518.56 C1523.99,525.19 1527.63,539.92 1530.74,546.30 C1533.25,551.46 1538.71,569.05 1539.51,575.29 C1540.72,585.05 1539.92,617.69 1540.37,619.99 C1542.10,626.37 1543.53,638.90 1543.83,645.52 C1544.18,654.75 1544.40,702.06 1544.37,702.56 C1544.02,708.75 1539.40,748.86 1537.34,765.89 C1534.53,786.64 1525.72,837.38 1523.23,852.23 C1521.07,863.50 1518.32,873.81 1515.18,881.33 C1512.07,888.39 1507.46,899.20 1506.93,901.50 C1506.71,902.45 1506.35,908.51 1505.53,912.38 C1503.75,920.44 1500.14,932.83 1496.56,941.62 C1494.05,947.65 1485.84,965.32 1483.07,971.50 C1481.46,975.15 1480.26,981.57 1480.00,982.00 C1479.01,983.55 1473.35,986.35 1471.39,986.36 C1468.47,986.33 1460.93,983.54 1458.00,982.00 C1455.48,980.65 1450.93,977.27 1448.00,974.00 C1445.76,971.47 1433.48,954.99 1428.12,949.43 C1425.25,946.46 1419.45,941.40 1417.21,940.07 C1416.94,939.91 1413.04,937.95 1411.91,937.14 C1407.06,933.66 1371.95,897.78 1368.28,893.12 C1365.91,890.08 1362.48,884.17 1361.16,881.04 C1359.83,877.82 1357.47,869.08 1357.34,868.74 C1356.14,865.56 1351.68,860.77 1348.00,858.00 C1345.17,855.87 1343.09,852.49 1341.84,849.25 C1340.61,845.98 1339.66,839.71 1339.53,835.77 C1339.33,828.45 1340.81,814.50 1342.80,808.90 C1343.99,805.65 1347.06,800.60 1350.30,796.24 C1353.03,792.64 1355.07,790.58 1358.35,788.42 C1362.11,785.93 1365.48,782.47 1367.92,778.62 C1369.75,775.93 1375.56,771.16 1378.00,770.00 C1379.65,769.23 1382.36,768.37 1384.00,768.00" fill="none" stroke="rgb(255, 255, 255)" stroke-width="30.00" stroke-opacity="1.00" stroke-linejoin="round"/>
<path d="M1668.00,604.00 C1669.14,612.97 1671.39,625.29 1672.78,632.58 C1674.32,640.94 1675.82,658.28 1676.87,660.26 C1677.09,660.68 1678.97,663.40 1679.27,664.31 C1680.23,667.17 1679.31,675.02 1679.29,675.38 C1678.86,682.44 1688.48,717.59 1688.53,720.27 C1688.27,723.14 1688.00,726.25 1688.45,731.38 C1690.18,748.27 1693.82,781.61 1695.72,798.06 C1696.56,803.75 1698.65,815.32 1700.12,822.24 C1701.90,830.30 1705.81,840.85 1709.61,848.12 C1712.56,853.88 1717.03,866.23 1720.25,877.48 C1721.58,882.33 1722.88,887.47 1723.71,891.65 C1724.35,894.65 1727.41,900.80 1729.85,904.46 C1733.13,909.23 1736.77,915.05 1737.37,917.16 C1737.56,917.83 1738.43,924.02 1739.74,927.96 C1741.14,932.10 1744.32,938.96 1746.00,940.00 C1746.62,940.38 1749.23,941.20 1750.00,942.00 C1750.67,942.71 1753.77,950.05 1755.92,952.50 C1757.29,953.99 1759.78,955.42 1762.00,956.00 C1764.57,956.62 1779.77,955.89 1781.21,955.96 C1782.80,956.00 1784.19,955.42 1786.00,954.00 C1787.70,952.63 1800.95,938.91 1803.84,937.06 C1804.43,936.69 1812.27,932.77 1814.22,931.37 C1817.33,929.10 1831.24,913.01 1834.12,909.29 C1839.85,901.83 1845.57,890.25 1848.16,887.23 C1850.12,884.98 1856.33,879.63 1858.55,878.11 C1862.60,875.41 1866.81,871.46 1870.01,867.72 C1873.50,863.57 1886.35,846.56 1888.00,844.00 C1891.06,839.21 1893.30,833.24 1894.00,832.00 C1895.36,829.63 1899.97,824.11 1901.47,821.98 C1903.26,819.38 1907.75,799.47 1908.93,795.37 C1910.13,791.31 1912.63,785.17 1915.23,780.26 C1916.99,776.87 1919.15,770.64 1919.48,767.41 C1919.79,763.59 1920.48,758.39 1921.09,756.17 C1921.58,754.47 1925.97,748.98 1926.61,745.36 C1927.42,741.02 1928.42,734.08 1929.01,729.95 C1929.87,724.51 1932.00,718.04 1932.00,718.00 C1932.08,717.29 1931.71,714.08 1932.00,712.00 C1932.16,710.87 1935.91,698.71 1936.00,698.00 C1936.07,697.48 1935.88,694.62 1936.00,694.00 C1936.04,693.78 1939.41,685.96 1940.00,682.00 C1940.59,677.80 1940.05,665.21 1940.00,664.00" fill="none" stroke="rgb(255, 255, 255)" stroke-width="30.00" stroke-opacity="1.00" stroke-linejoin="round"/>
<path d="M1988.00,588.00 C1987.44,591.38 1990.53,606.97 1992.00,614.00 C1992.64,617.22 1993.95,624.29 1994.73,626.06 C1995.72,628.35 1996.07,633.04 1996.10,638.05 C1996.09,640.27 1995.90,648.96 1995.92,653.32 C1995.97,657.58 1997.58,662.64 1998.00,664.00 C1999.63,669.22 2000.13,681.30 2000.07,691.61 C1999.95,699.97 2000.11,716.40 2000.45,724.98 C2001.11,735.16 2002.14,743.50 2002.83,745.73 C2003.08,746.51 2005.70,752.22 2006.54,756.64 C2007.73,763.23 2010.21,779.86 2011.36,788.17 C2011.94,793.12 2012.28,798.13 2011.84,800.36 C2011.25,803.41 2014.19,816.32 2017.16,827.15 C2018.73,832.49 2021.05,839.51 2021.07,839.57 C2021.90,843.00 2024.60,861.37 2025.25,868.15 C2026.27,881.53 2027.88,928.47 2028.49,932.19 C2028.83,934.21 2031.45,942.75 2031.51,943.13 C2032.22,947.57 2031.96,989.08 2032.00,994.00 C2031.84,978.28 2031.67,953.48 2031.78,945.96 C2031.94,940.53 2032.62,934.88 2034.47,932.42 C2035.75,930.74 2038.56,924.42 2039.22,921.81 C2040.46,916.79 2041.52,899.85 2042.65,894.42 C2043.07,892.39 2045.13,885.16 2046.00,880.00 C2046.56,876.61 2048.42,859.97 2049.42,852.08 C2050.53,844.57 2053.07,830.09 2054.58,822.53 C2056.22,815.16 2060.07,800.32 2062.41,792.94 C2067.48,778.05 2079.04,751.26 2079.92,749.19 C2081.70,744.89 2082.50,742.48 2083.11,737.71 C2083.57,734.23 2089.76,719.74 2093.35,710.46 C2097.51,699.07 2099.81,691.41 2100.00,690.00 C2100.28,687.82 2099.48,685.36 2099.41,684.65 C2099.25,682.58 2102.95,677.74 2107.10,673.17 C2110.00,670.00 2117.04,662.79 2118.78,661.62 C2121.63,659.76 2126.74,659.16 2130.91,659.61 C2136.98,660.30 2155.10,659.29 2158.00,660.00 C2160.79,660.72 2163.29,662.08 2165.65,664.10 C2167.00,665.29 2169.59,667.02 2170.27,667.66 C2171.78,669.13 2173.97,675.28 2175.19,678.86 C2177.82,686.30 2186.32,702.23 2187.31,705.26 C2188.89,710.09 2198.74,727.66 2200.64,731.27 C2203.16,736.14 2205.90,746.18 2210.53,756.40 C2211.96,759.70 2214.69,767.66 2215.39,770.73 C2216.21,774.39 2216.43,782.56 2216.60,783.32 C2217.76,788.52 2227.01,807.43 2228.94,811.58 C2230.86,815.75 2233.41,828.93 2233.67,829.79 C2239.99,849.62 2245.21,870.91 2246.00,876.00 C2246.72,880.73 2247.21,889.24 2247.48,891.21 C2247.98,894.72 2250.91,900.40 2251.24,901.61 C2252.51,906.38 2252.18,924.68 2252.00,932.00" fill="none" stroke="rgb(255, 255, 255)" stroke-width="30.00" stroke-opacity="1.00" stroke-linejoin="round"/>
<path d="M2536.00,632.00 C2532.02,631.69 2528.12,631.73 2524.54,632.89 C2520.69,634.19 2516.11,637.30 2513.71,640.17 C2511.50,642.78 2506.98,645.78 2503.74,646.92 C2499.52,648.41 2495.01,651.06 2491.41,654.05 C2488.00,656.92 2471.87,672.03 2468.65,674.40 C2467.27,675.40 2450.84,685.74 2444.23,689.87 C2435.01,695.82 2429.89,699.54 2420.36,708.01 C2416.57,711.36 2405.80,718.47 2399.03,723.99 C2392.02,729.87 2383.33,738.61 2379.37,744.40 C2374.77,751.20 2364.40,763.42 2361.92,766.70 C2356.04,774.61 2349.70,786.15 2346.02,790.37 C2344.08,792.57 2337.94,799.10 2335.70,801.75 C2334.54,803.17 2332.62,806.18 2332.25,807.36 C2332.14,807.72 2331.54,814.77 2330.13,817.84 C2328.72,820.86 2324.19,828.61 2321.79,832.37 C2318.45,837.48 2314.68,841.88 2314.00,844.00 C2313.51,845.59 2310.47,863.68 2308.29,871.57 C2307.84,873.22 2308.70,881.29 2308.73,881.83 C2309.11,889.17 2299.98,931.35 2299.36,944.23 C2299.09,950.02 2299.88,965.63 2300.00,972.00 C2300.04,980.19 2299.40,997.42 2300.89,1001.64 C2301.06,1002.12 2309.56,1016.40 2314.60,1026.94 C2315.30,1028.47 2319.79,1038.60 2320.43,1039.73 C2321.14,1040.96 2322.92,1043.08 2323.95,1043.92 C2324.59,1044.43 2331.19,1049.12 2334.30,1052.16 C2336.24,1054.07 2342.76,1061.13 2345.17,1063.42 C2350.53,1068.50 2362.24,1076.01 2369.44,1079.88 C2373.13,1081.79 2379.50,1085.05 2383.48,1086.91 C2387.12,1088.58 2393.60,1089.85 2394.00,1090.00 C2395.81,1090.66 2405.98,1095.52 2408.00,1096.00 C2408.68,1096.15 2416.23,1095.57 2420.63,1096.48 C2425.51,1097.49 2445.50,1102.36 2450.93,1103.45 C2454.85,1104.21 2461.75,1104.92 2464.52,1104.63 C2472.23,1103.74 2505.47,1104.07 2508.22,1103.48 C2508.63,1103.39 2530.23,1089.94 2534.78,1087.56 C2539.42,1085.18 2544.46,1083.52 2549.67,1082.69 C2551.23,1082.42 2553.43,1081.21 2554.55,1079.99 C2555.27,1079.00 2556.56,1077.40 2557.78,1076.84 C2558.98,1076.27 2561.88,1075.49 2562.40,1075.16 C2565.18,1073.32 2570.49,1066.03 2572.17,1063.57 C2574.55,1060.06 2578.46,1054.28 2580.00,1052.00" fill="none" stroke="rgb(255, 255, 255)" stroke-width="30.00" stroke-opacity="1.00" stroke-linejoin="round"/>
<path d="M2644.00,724.00 C2643.69,737.47 2645.00,762.21 2645.75,775.42 C2646.71,792.18 2647.86,827.58 2648.25,844.78 C2648.23,877.41 2648.08,943.44 2647.94,976.83 C2647.95,993.82 2647.98,1021.41 2648.00,1032.00" fill="none" stroke="rgb(255, 255, 255)" stroke-width="30.00" stroke-opacity="1.00" stroke-linejoin="round"/>
<path d="M2588.00,460.00" fill="none" stroke="rgb(255, 255, 255)" stroke-width="30.00" stroke-opacity="1.00" stroke-linejoin="round"/>
<path d="M2724.00,784.00 C2725.44,783.06 2729.41,780.46 2730.00,780.00 C2731.12,779.11 2732.89,776.69 2733.43,776.11 C2735.55,773.89 2743.32,771.23 2746.00,770.00 C2748.27,768.96 2754.15,765.69 2757.86,763.43 C2760.80,761.60 2764.39,757.51 2765.54,756.95 C2768.10,755.73 2787.22,751.41 2794.17,751.58 C2798.35,751.71 2803.19,752.63 2804.00,754.00 C2804.37,754.63 2805.33,757.45 2806.00,758.00 C2806.74,758.62 2810.39,760.47 2812.00,762.00 C2813.53,763.45 2820.77,777.53 2825.00,786.58 C2826.44,789.56 2829.71,794.66 2831.98,797.00 C2833.76,799.16 2836.11,805.09 2836.87,807.27 C2839.28,814.29 2840.05,824.70 2840.26,835.42 C2840.30,869.45 2840.18,934.40 2840.01,965.32 C2839.99,973.58 2840.07,987.76 2840.06,993.27 C2839.98,998.97 2838.50,1014.50 2837.14,1019.70 C2836.44,1022.34 2833.99,1028.45 2831.80,1030.51 C2831.23,1031.04 2829.48,1032.52 2829.00,1033.57 C2825.42,1041.83 2820.29,1049.25 2820.00,1050.00 C2819.63,1050.96 2819.75,1052.84 2820.00,1054.00 C2820.00,1054.00 2814.00,1056.00 2814.00,1056.00 C2805.11,1043.64 2791.44,1024.38 2787.58,1018.53 C2785.05,1014.60 2781.83,1008.22 2781.33,1004.94 C2780.72,1000.59 2771.76,983.54 2770.69,981.40 C2766.95,973.86 2764.05,964.46 2761.65,954.51 C2758.23,938.93 2751.61,910.35 2746.68,894.29 C2744.47,887.03 2744.00,879.09 2743.91,868.67 C2743.86,850.72 2743.93,820.68 2744.00,820.00 C2744.18,818.20 2747.90,800.87 2750.52,796.08 C2751.96,793.54 2754.83,792.24 2756.00,792.00" fill="none" stroke="rgb(255, 255, 255)" stroke-width="30.00" stroke-opacity="1.00" stroke-linejoin="round"/>
<path d="M2884.00,536.00 C2885.26,535.81 2887.14,535.72 2888.00,536.00 C2889.88,536.65 2892.75,541.23 2894.74,545.57 C2895.71,547.63 2900.00,553.89 2901.42,556.60 C2903.28,560.16 2907.17,567.71 2908.73,571.08 C2910.03,573.93 2913.33,586.17 2917.08,596.76 C2923.20,613.28 2938.83,654.58 2938.92,654.96 C2940.14,660.21 2946.93,702.12 2949.55,718.93 C2951.36,732.01 2951.98,739.17 2952.00,746.00 C2951.86,752.71 2951.60,766.87 2952.35,773.89 C2953.14,781.09 2956.58,794.44 2959.06,800.37 C2961.16,805.56 2963.13,820.31 2963.98,830.00 C2964.64,838.36 2966.00,854.00 2967.04,862.85 C2968.13,870.05 2970.17,884.44 2970.60,891.62 C2971.43,905.72 2972.42,914.03 2974.60,921.47 C2976.85,929.07 2983.34,945.81 2984.00,950.00 C2984.53,953.59 2984.18,961.43 2983.96,963.79 C2983.78,965.60 2984.29,966.52 2986.00,968.00 C2988.01,960.25 2990.10,950.25 2991.52,943.94 C2992.12,940.69 2992.01,850.56 2991.94,813.88 C2992.04,797.63 2992.51,764.83 2993.48,754.34 C2994.38,746.32 2998.06,732.07 2998.49,729.51 C2998.73,728.04 3000.31,713.82 3002.11,702.95 C3003.85,692.82 3007.66,678.36 3010.67,670.48 C3013.14,664.09 3020.79,648.38 3024.30,641.31 C3034.05,622.55 3041.75,610.24 3042.00,610.00 C3042.97,609.07 3047.05,606.66 3048.00,606.00 C3048.96,605.34 3050.29,603.91 3052.26,601.67 C3053.43,600.35 3054.88,599.49 3055.94,599.55 C3063.52,600.17 3093.90,599.96 3094.00,600.00 C3094.40,600.17 3110.08,611.52 3118.00,616.43 C3120.21,617.81 3122.65,619.46 3123.98,620.39 C3125.57,621.50 3127.31,623.61 3127.83,625.22 C3128.09,626.05 3127.92,629.76 3128.19,630.60 C3129.01,633.05 3134.01,638.57 3136.83,641.48 C3139.99,644.77 3144.72,650.71 3146.07,653.67 C3146.93,655.60 3148.47,664.73 3148.57,665.03 C3149.27,667.18 3154.90,674.78 3155.83,676.24 C3158.95,681.16 3166.10,699.14 3169.94,704.41 C3173.10,708.65 3174.79,711.19 3177.51,715.79 C3179.78,719.74 3181.97,725.50 3182.54,728.24 C3182.66,728.86 3184.05,742.71 3186.57,757.19 C3189.93,773.99 3196.41,806.18 3199.54,821.56 C3199.98,823.56 3199.69,829.85 3201.13,832.97 C3201.72,834.23 3203.81,838.81 3204.00,840.00 C3204.23,841.41 3203.90,845.71 3204.00,846.00 C3204.18,846.52 3207.38,849.31 3208.00,850.00 C3208.66,850.73 3210.39,853.80 3211.05,855.23 C3212.35,858.16 3212.26,862.40 3212.00,864.00" fill="none" stroke="rgb(255, 255, 255)" stroke-width="30.00" stroke-opacity="1.00" stroke-linejoin="round"/>
<path d="M2320.00,440.00 C2325.31,437.53 2330.24,435.61 2333.23,435.66 C2333.64,435.67 2337.30,436.13 2338.00,436.00 C2338.90,435.83 2342.44,433.78 2346.91,432.51 C2353.66,430.70 2373.51,427.59 2376.77,426.86 C2381.03,425.86 2387.55,422.77 2390.87,421.05 C2393.95,419.70 2397.22,419.55 2403.27,419.98 C2406.33,420.19 2412.45,418.96 2414.00,418.00 C2416.91,416.19 2418.97,415.84 2425.22,415.86 C2427.27,415.90 2430.66,415.97 2432.00,416.00" fill="none" stroke="rgb(255, 255, 255)" stroke-width="30.00" stroke-opacity="1.00" stroke-linejoin="round"/>
<path d="M2364.00,304.00 C2363.93,337.04 2363.92,395.69 2364.00,398.00 C2364.07,400.01 2368.00,427.00 2370.00,442.00 C2370.68,446.14 2371.87,450.26 2372.00,454.00 C2372.10,457.18 2371.49,473.62 2372.00,482.00 C2372.45,489.08 2375.01,508.27 2375.45,512.85 C2376.19,520.67 2375.83,538.78 2375.78,540.91 C2375.57,551.51 2380.16,588.98 2380.24,599.63 C2380.26,603.36 2379.67,619.72 2380.16,629.10 C2380.83,638.93 2384.01,674.74 2384.25,689.58 C2384.19,697.04 2383.81,711.53 2383.82,718.76 C2384.19,733.63 2388.35,772.48 2388.73,779.08 C2389.13,787.43 2390.89,796.55 2393.96,806.80 C2396.96,817.38 2399.57,828.72 2400.48,835.08 C2401.24,841.54 2402.94,854.64 2403.88,861.27 C2405.05,868.52 2409.17,883.58 2411.35,891.10 C2412.29,894.86 2412.55,897.98 2412.21,903.24 C2411.98,906.67 2411.76,928.70 2411.88,933.53 C2411.92,935.55 2412.23,937.22 2412.83,938.36 C2414.00,939.96 2416.07,943.30 2416.17,946.29 C2416.27,950.70 2415.38,972.34 2415.54,974.63 C2415.86,978.49 2417.91,984.42 2420.50,989.24 C2422.63,993.15 2425.05,997.14 2426.00,1000.00 C2426.69,1002.11 2430.53,1018.28 2433.54,1026.69 C2436.08,1033.85 2441.09,1051.12 2443.82,1055.19 C2445.87,1057.83 2449.67,1063.05 2451.36,1066.80 C2452.56,1069.50 2458.60,1085.63 2463.10,1095.52 C2463.90,1097.35 2464.09,1098.60 2463.91,1100.22 C2463.78,1101.54 2464.17,1102.34 2465.60,1103.64 C2468.21,1105.99 2471.41,1111.53 2472.00,1114.00 C2472.48,1116.12 2471.82,1124.26 2471.80,1125.25 C2471.77,1126.91 2472.24,1129.04 2472.86,1130.31 C2473.40,1131.38 2475.51,1133.20 2476.00,1134.00 C2476.44,1134.71 2477.12,1138.26 2478.00,1140.00 C2478.60,1141.20 2482.11,1145.76 2482.39,1146.24 C2484.34,1149.51 2484.54,1154.88 2484.07,1159.71 C2483.93,1161.24 2484.11,1163.13 2484.57,1163.94 C2486.33,1166.47 2488.68,1172.54 2490.00,1176.00 C2491.63,1175.39 2494.23,1173.73 2496.00,1172.00 C2497.17,1170.85 2507.14,1155.48 2512.00,1150.00 C2514.10,1147.66 2517.64,1144.29 2520.27,1142.04 C2523.19,1139.59 2527.47,1137.18 2531.92,1135.28 C2535.57,1133.72 2540.46,1130.23 2543.06,1127.34 C2546.16,1123.84 2551.12,1118.88 2553.89,1116.47 C2557.21,1113.62 2561.98,1110.87 2565.72,1109.69 C2568.71,1108.73 2573.74,1104.53 2576.23,1101.72 C2577.63,1100.12 2583.18,1093.09 2585.69,1090.36 C2588.37,1087.49 2593.44,1083.22 2597.23,1080.90 C2606.74,1075.11 2609.38,1072.78 2612.24,1069.62 C2613.53,1068.17 2614.47,1067.83 2616.00,1068.00" fill="none" stroke="rgb(255, 255, 255)" stroke-width="30.00" stroke-opacity="1.00" stroke-linejoin="round"/>
</g>
</svg>
